STARTFONT 2.1
COMMENT CDDL HEADER START
COMMENT
COMMENT The contents of this file are subject to the terms of the
COMMENT Common Development and Distribution License (the "License").
COMMENT You may not use this file except in compliance with the License.
COMMENT
COMMENT You can obtain a copy of the license at src/OPENSOLARIS.LICENSE
COMMENT or http://www.opensolaris.org/os/licensing.
COMMENT See the License for the specific language governing permissions
COMMENT and limitations under the License.
COMMENT
COMMENT When distributing Covered Code, include this CDDL HEADER in each
COMMENT file and include the License file at src/OPENSOLARIS.LICENSE.
COMMENT If applicable, add the following below this CDDL HEADER, with the
COMMENT fields enclosed by brackets "[]" replaced with your own identifying
COMMENT information: Portions Copyright [yyyy] [name of copyright owner]
COMMENT
COMMENT CDDL HEADER END
COMMENT
COMMENT Copyright (c) 1998-2001 by Sun Microsystems, Inc.
COMMENT All rights reserved.
COMMENT
COMMENT "@(#)splmt20.bdf	1.10 01/08/15 SMI"
COMMENT 
FONT -sun-supplement-medium-r-normal--20-200-75-75-p-200-unicode-fontspecific
SIZE 20 72 72
FONTBOUNDINGBOX 20 20 0 -4
STARTPROPERTIES 19
FONTNAME_REGISTRY ""
FOUNDRY "sun"
FAMILY_NAME "supplement"
WEIGHT_NAME "medium"
SLANT "R"
SETWIDTH_NAME "normal"
ADD_STYLE_NAME ""
PIXEL_SIZE 20
POINT_SIZE 200
RESOLUTION_X 75
RESOLUTION_Y 75
SPACING "P"
AVERAGE_WIDTH 200
CHARSET_REGISTRY "unicode"
CHARSET_ENCODING "fontspecific"
DEFAULT_CHAR 0
FONT_DESCENT 4
FONT_ASCENT 20
COPYRIGHT "Copyright (c) 1998-2001 by Sun Microsystems, Inc."
ENDPROPERTIES
CHARS 24
STARTCHAR notdefined
ENCODING 0
SWIDTH 500 0
DWIDTH 10 0
BBX 10 20 0 -4
BITMAP
000000
000000
924000
248000
490000
924000
248000
490000
924000
248000
490000
924000
248000
490000
924000
248000
000000
000000
000000
000000
ENDCHAR
STARTCHAR no_half
ENCODING 1
SWIDTH 500 0
DWIDTH 10 0
BBX 10 20 0 -4
BITMAP
000000
000000
ffc000
c0c000
c14000
a24000
a24000
944000
884000
884000
944000
a24000
a24000
c14000
c0c000
ffc000
000000
000000
000000
000000
ENDCHAR
STARTCHAR no_full
ENCODING 2
SWIDTH 1000 0
DWIDTH 20 0
BBX 20 20 0 -4
BITMAP
000000
3fffc0
3801c0
280240
260440
210840
209040
206040
206040
209040
210840
220440
240240
280140
3000c0
3fffc0
000000
000000
000000
000000
ENDCHAR
STARTCHAR euro_20ac
ENCODING 3
SWIDTH 500 0
DWIDTH 10 0
BBX 10 20 0 -4
BITMAP
000000
000000
000000
1f0000
318000
204000
400000
400000
ff8000
400000
400000
ff0000
400000
604000
318000
1f0000
000000
000000
000000
000000
ENDCHAR
STARTCHAR replcmnt_fffd
ENCODING 4
SWIDTH 500 0
DWIDTH 10 0
BBX 10 20 0 -4
BITMAP
000000
000000
0c0000
1e0000
1e0000
210000
4d8000
5e8000
fec000
fdc000
738000
738000
3f0000
120000
1e0000
0c0000
000000
000000
000000
000000
ENDCHAR
STARTCHAR OE_0152
ENCODING 5
SWIDTH 500 0
DWIDTH 10 0
BBX 10 20 0 -4
BITMAP
000000
000000
000000
77c000
dc0000
8c0000
8c0000
8c0000
8c0000
8f8000
8c0000
8c0000
8c0000
8c0000
dc0000
77c000
000000
000000
000000
000000
ENDCHAR
STARTCHAR oe_0153
ENCODING 6
SWIDTH 500 0
DWIDTH 10 0
BBX 10 20 0 -4
BITMAP
000000
000000
000000
000000
000000
000000
778000
dc8000
884000
884000
8fc000
880000
880000
880000
dcc000
738000
000000
000000
000000
000000
ENDCHAR
STARTCHAR Yumlaut_0178
ENCODING 7
SWIDTH 500 0
DWIDTH 10 0
BBX 10 20 0 -4
BITMAP
000000
000000
0a0000
0a0000
404000
208000
318000
110000
0a0000
0a0000
040000
040000
040000
040000
040000
040000
000000
000000
000000
000000
ENDCHAR
STARTCHAR Ccircumflex_0108
ENCODING 8
SWIDTH 500 0
DWIDTH 10 0
BBX 10 20 0 -4
BITMAP
060000
090000
198000
000000
0f8000
108000
200000
400000
400000
400000
400000
400000
400000
200000
108000
0f8000
000000
000000
000000
000000
ENDCHAR
STARTCHAR ccircumflex_0109
ENCODING 9
SWIDTH 500 0
DWIDTH 10 0
BBX 10 20 0 -4
BITMAP
000000
000000
000000
060000
090000
198000
000000
0f8000
108000
200000
200000
200000
200000
200000
108000
0f8000
000000
000000
000000
000000
ENDCHAR
STARTCHAR Cdotabove_010a
ENCODING 10
SWIDTH 500 0
DWIDTH 10 0
BBX 10 20 0 -4
BITMAP
060000
060000
000000
000000
0f8000
108000
200000
400000
400000
400000
400000
400000
400000
200000
108000
0f8000
000000
000000
000000
000000
ENDCHAR
STARTCHAR cdotabove_010b
ENCODING 11
SWIDTH 500 0
DWIDTH 10 0
BBX 10 20 0 -4
BITMAP
000000
000000
000000
060000
060000
000000
000000
0f8000
108000
200000
200000
200000
200000
200000
108000
0f8000
000000
000000
000000
000000
ENDCHAR
STARTCHAR Gcircumflex_011c
ENCODING 12
SWIDTH 500 0
DWIDTH 10 0
BBX 10 20 0 -4
BITMAP
060000
090000
198000
000000
0f8000
108000
200000
400000
400000
400000
400000
408000
408000
208000
108000
0f8000
000000
000000
000000
000000
ENDCHAR
STARTCHAR gcircumflex_011d
ENCODING 13
SWIDTH 500 0
DWIDTH 10 0
BBX 10 20 0 -4
BITMAP
000000
000000
000000
0c0000
120000
330000
000000
1d0000
230000
410000
410000
410000
410000
410000
230000
3d0000
010000
220000
3e0000
000000
ENDCHAR
STARTCHAR Gdotabove_0120
ENCODING 14
SWIDTH 500 0
DWIDTH 10 0
BBX 10 20 0 -4
BITMAP
060000
060000
000000
000000
0f8000
108000
200000
400000
400000
400000
400000
408000
408000
208000
108000
0f8000
000000
000000
000000
000000
ENDCHAR
STARTCHAR gdotabove_0121
ENCODING 15
SWIDTH 500 0
DWIDTH 10 0
BBX 10 20 0 -4
BITMAP
000000
000000
000000
0c0000
0c0000
000000
000000
1d0000
230000
410000
410000
410000
410000
410000
230000
3d0000
010000
220000
3e0000
000000
ENDCHAR
STARTCHAR Hcircumflex_0124
ENCODING 16
SWIDTH 500 0
DWIDTH 10 0
BBX 10 20 0 -4
BITMAP
040000
0a0000
1b0000
000000
208000
208000
208000
208000
208000
3f8000
208000
208000
208000
208000
208000
208000
000000
000000
000000
000000
ENDCHAR
STARTCHAR hcircumflex_0125
ENCODING 17
SWIDTH 500 0
DWIDTH 10 0
BBX 10 20 0 -4
BITMAP
040000
0a0000
1b0000
000000
200000
200000
200000
270000
388000
208000
208000
208000
208000
208000
208000
208000
000000
000000
000000
000000
ENDCHAR
STARTCHAR Jcircumflex_0134
ENCODING 18
SWIDTH 500 0
DWIDTH 10 0
BBX 10 20 0 -4
BITMAP
0c0000
120000
330000
000000
3e0000
020000
020000
020000
020000
020000
020000
020000
020000
020000
260000
3c0000
000000
000000
000000
000000
ENDCHAR
STARTCHAR jcircumflex_0135
ENCODING 19
SWIDTH 500 0
DWIDTH 10 0
BBX 10 20 0 -4
BITMAP
000000
000000
000000
060000
090000
198000
000000
3e0000
020000
020000
020000
020000
020000
020000
020000
020000
020000
020000
220000
3c0000
ENDCHAR
STARTCHAR Scircumflex_015c
ENCODING 20
SWIDTH 500 0
DWIDTH 10 0
BBX 10 20 0 -4
BITMAP
0c0000
120000
330000
000000
1f0000
210000
200000
200000
100000
0c0000
030000
018000
008000
008000
210000
3e0000
000000
000000
000000
000000
ENDCHAR
STARTCHAR scircumflex_015d
ENCODING 21
SWIDTH 500 0
DWIDTH 10 0
BBX 10 20 0 -4
BITMAP
000000
000000
000000
0c0000
120000
330000
000000
1f0000
200000
200000
300000
0e0000
030000
010000
010000
3e0000
000000
000000
000000
000000
ENDCHAR
STARTCHAR Ubreve_016c
ENCODING 22
SWIDTH 500 0
DWIDTH 10 0
BBX 10 20 0 -4
BITMAP
040000
0a0000
1b0000
000000
208000
208000
208000
208000
208000
208000
208000
208000
208000
208000
110000
0f0000
000000
000000
000000
000000
ENDCHAR
STARTCHAR ubreve_016d
ENCODING 23
SWIDTH 500 0
DWIDTH 10 0
BBX 10 20 0 -4
BITMAP
000000
000000
000000
040000
0a0000
1b0000
000000
208000
208000
208000
208000
208000
208000
208000
238000
1c8000
000000
000000
000000
000000
ENDCHAR
ENDFONT
